:SAMPLES-PER-SECOND 30
:FRAME-RANGE 1-564
:FULLY-SPECIFIED
:DEGREES
388
root  10.5692 35.2533 -96.3646 -175.259 -9.06088 -169.779
RightUpLeg  -41.5646 11.8849 0.943062
RightLeg  37.0882 -1.59527 -1.55579
RightFoot  -8.70704 -0.205004 6.33335
RightToes  -1.74624e-010 0 -3.6325e-017
Spine  42.3872 2.54443 7.00167
Spine1  6.73353 8.3457 -7.88504
HEad  -12.3738 -6.53442 -4.06694
LeftShoulder1  4.53284 -10.8008 -25.5426
LeftArm  -26.6752 -63.2209 -23.5145
LeftForeArm  -13.5195 -0.883036 -15.5345
LeftHand  -0.0444667 -8.35229 0.756884
RightShoulder  18.9298 38.3273 38.402
RightArm  -40.9789 34.4425 -8.05963
RightForeArm  -7.83195 1.1819 7.36982
RightHand  3.44604 25.2252 12.3314
LeftUpLeg  -43.5741 13.6678 6.90436
LeftLeg  47.1454 -5.15427 -5.49481
LeftFoot  -9.0402 -0.170783 11.1821
LeftToes  -6.43926e-010 8.38805e-011 -3.16407e-011
389
root  10.5907 34.3286 -96.7636 -174.828 -8.81256 -169.454
RightUpLeg  -44.6953 11.4094 1.61932
RightLeg  41.6197 -1.13482 -1.36753
RightFoot  -5.28015 -0.201844 3.13246
RightToes  -1.74624e-010 0 -3.6325e-017
Spine  41.6904 2.89843 7.44919
Spine1  10.587 8.70903 -6.64838
HEad  -15.7747 -7.49895 -4.36131
LeftShoulder1  4.70316 -11.2259 -25.7928
LeftArm  -29.8648 -64.7467 -22.8322
LeftForeArm  -11.9091 -0.518854 -14.8967
LeftHand  -0.0545455 -8.6467 0.837247
RightShoulder  18.1795 38.7188 36.2595
RightArm  -42.7451 34.8019 -8.79503
RightForeArm  -8.48693 1.2983 7.00086
RightHand  3.1691 25.1013 11.3554
LeftUpLeg  -46.9214 13.6749 7.53098
LeftLeg  53.7394 -4.21762 -5.66677
LeftFoot  -12.6843 0.20732 11.1238
LeftToes  -6.43926e-010 8.38805e-011 -3.16407e-011
390
root  10.6872 33.0483 -97.215 -174.057 -9.06186 -170.163
RightUpLeg  -48.9061 11.0646 0.245986
RightLeg  49.3256 -0.726893 -1.25292
RightFoot  -9.70792 -0.23475 11.7843
RightToes  -1.74624e-010 0 -3.6325e-017
Spine  39.9909 3.42889 6.62305
Spine1  14.5866 8.91588 -5.32923
HEad  -18.8897 -8.59377 -4.6616
LeftShoulder1  4.88316 -11.66 -26.0749
LeftArm  -32.038 -66.1699 -22.8719
LeftForeArm  -10.8541 -0.372747 -14.2896
LeftHand  -0.0870892 -8.72983 1.10294
RightShoulder  17.3135 38.8597 34.1112
RightArm  -44.5527 35.026 -9.52682
RightForeArm  -8.32382 1.17593 6.54371
RightHand  3.08734 25.4094 10.9319
LeftUpLeg  -51.2989 13.169 7.11272
LeftLeg  61.5773 -3.21014 -5.80634
LeftFoot  -16.508 0.592075 10.8813
LeftToes  -6.43926e-010 8.38805e-011 -3.16407e-011
391
root  10.79 31.693 -97.6116 -173.21 -9.49065 -171.325
RightUpLeg  -54.5069 9.51779 -0.617519
RightLeg  58.9067 0.108846 -0.278079
RightFoot  -13.2755 0.0702533 9.49161
RightToes  -1.74624e-010 0 -3.6325e-017
Spine  38.331 4.17078 5.85267
Spine1  18.3216 8.88603 -3.34842
HEad  -21.495 -10.2384 -5.13834
LeftShoulder1  5.16837 -12.3128 -26.5638
LeftArm  -33.2599 -67.5431 -23.5878
LeftForeArm  -9.31617 -0.533086 -13.8319
LeftHand  -0.115468 -8.95281 1.32458
RightShoulder  16.0833 38.5751 31.4993
RightArm  -45.745 34.8274 -9.94269
RightForeArm  -8.67136 1.43265 6.24421
RightHand  2.97556 25.5091 10.4831
LeftUpLeg  -55.4896 12.3496 6.22965
LeftLeg  68.794 -2.27264 -5.657
LeftFoot  -20.1891 0.937904 10.5177
LeftToes  -6.43926e-010 8.38805e-011 -3.16407e-011
392
root  10.8988 30.2866 -98.0413 -172.968 -9.72049 -172.139
RightUpLeg  -58.8283 9.37756 -1.38898
RightLeg  67.3755 0.146922 -0.306528
RightFoot  -16.8846 0.448267 11.5972
RightToes  -1.74624e-010 0 -3.6325e-017
Spine  36.9058 5.02447 5.45806
Spine1  22.1356 8.95362 -1.03493
HEad  -24.0928 -12.3279 -5.96223
LeftShoulder1  5.51481 -12.914 -27.5051
LeftArm  -34.0345 -69.1312 -25.1735
LeftForeArm  -7.58286 -0.649962 -13.3069
LeftHand  -0.163321 -8.93901 1.71202
RightShoulder  14.7882 38.0748 28.8511
RightArm  -46.4583 34.4873 -10.668
RightForeArm  -8.98265 1.67486 6.10065
RightHand  2.87873 25.5329 10.1186
LeftUpLeg  -58.877 12.2933 5.7726
LeftLeg  75.8796 -1.51078 -5.69144
LeftFoot  -23.9811 1.35169 10.8625
LeftToes  -6.43926e-010 8.38805e-011 -3.16407e-011
393
root  11.0331 28.8529 -98.466 -172.934 -10.0939 -172.686
RightUpLeg  -62.736 9.45149 -1.96215
RightLeg  75.311 0.154138 -0.506689
RightFoot  -20.614 0.813533 11.7249
RightToes  -1.74624e-010 0 -3.6325e-017
Spine  35.7067 6.07934 5.26793
Spine1  25.301 8.85539 2.01597
HEad  -25.4384 -14.5912 -7.05654
LeftShoulder1  5.92199 -13.6774 -28.4024
LeftArm  -33.2166 -70.1657 -29.1416
LeftForeArm  -5.95598 -0.881594 -12.6491
LeftHand  -0.208523 -9.16693 2.05441
RightShoulder  13.4067 37.2553 26.1582
RightArm  -47.0983 33.9897 -11.0051
RightForeArm  -9.29526 1.6985 5.87187
RightHand  2.80691 25.6631 9.80968
LeftUpLeg  -62.2692 12.3482 5.57636
LeftLeg  82.879 -0.789282 -5.67267
LeftFoot  -27.2686 1.61251 10.3189
LeftToes  -6.43926e-010 8.38805e-011 -3.16407e-011
394
root  11.2002 27.442 -98.8805 -172.731 -10.9502 -174.106
RightUpLeg  -66.2697 9.07986 -3.51383
RightLeg  82.7161 0.235738 -0.471222
RightFoot  -24.5644 1.24548 12.1487
RightToes  -1.74624e-010 0 -3.6325e-017
Spine  34.2309 8.09199 4.06848
Spine1  28.5779 8.10425 7.68834
HEad  -26.6983 -18.1439 -9.36372
LeftShoulder1  6.53935 -14.6012 -30.0806
LeftArm  -29.8506 -71.6295 -36.0292
LeftForeArm  -3.38511 -0.813844 -12.2928
LeftHand  -0.259133 -9.31745 2.43803
RightShoulder  10.9909 35.3283 21.4647
RightArm  -47.0708 33.1278 -10.9954
RightForeArm  -9.99013 1.75838 5.76279
RightHand  2.68804 25.6714 9.37161
LeftUpLeg  -65.4277 11.7833 4.69632
LeftLeg  89.2712 -0.139419 -6.29033
LeftFoot  -29.9485 1.76228 9.62727
LeftToes  -6.43926e-010 8.38805e-011 -3.16407e-011
395
root  11.3564 26.0855 -99.2996 -172.908 -11.6999 -174.9
RightUpLeg  -69.2147 8.92769 -4.27276
RightLeg  89.53 0.312552 -0.686473
RightFoot  -27.7275 1.61044 12.4557
RightToes  -1.74624e-010 0 -3.6325e-017
Spine  33.1298 10.2328 3.50079
Spine1  31.4396 7.17085 14.0381
HEad  -27.9464 -22.0824 -12.0924
LeftShoulder1  7.16469 -15.486 -31.6995
LeftArm  -24.4134 -72.6368 -45.8936
LeftForeArm  -0.629658 -1.06216 -11.8037
LeftHand  -0.304182 -9.36436 2.78566
RightShoulder  8.43312 32.8192 16.1341
RightArm  -46.6751 32.0549 -10.8874
RightForeArm  -10.781 2.08108 5.76633
RightHand  2.66139 25.776 9.24003
LeftUpLeg  -67.8542 11.292 4.74128
LeftLeg  95.1602 0.583174 -6.86849
LeftFoot  -32.7734 1.97668 9.37346
LeftToes  -6.43926e-010 8.38805e-011 -3.16407e-011
396
root  11.5198 24.8909 -99.6844 -173.138 -12.0073 -175.42
RightUpLeg  -71.6531 9.12867 -4.55009
RightLeg  95.1956 0.454474 -1.1421
RightFoot  -30.2142 1.8747 12.4783
RightToes  -1.74624e-010 0 -3.6325e-017
Spine  32.1936 12.3737 3.13392
Spine1  33.7707 6.2931 19.9511
HEad  -28.5407 -25.7993 -15.0793
LeftShoulder1  7.74759 -16.6253 -32.4488
LeftArm  -18.8406 -72.69 -55.2173
LeftForeArm  1.44493 -1.67713 -11.4854
LeftHand  -0.447843 -9.66194 3.847
RightShoulder  6.27668 29.9987 11.3343
RightArm  -46.1918 31.2429 -10.6195
RightForeArm  -11.3075 2.33694 5.80192
RightHand  2.60332 25.9435 8.97521
LeftUpLeg  -69.7028 11.6963 4.85126
LeftLeg  100.076 1.29368 -7.36351
LeftFoot  -35.4471 2.27006 9.59936
LeftToes  -6.43926e-010 8.38805e-011 -3.16407e-011
397
root  11.6388 23.8417 -100.025 -173.31 -12.5161 -175.835
RightUpLeg  -73.5688 8.8999 -4.76615
RightLeg  99.9525 0.572386 -1.15871
RightFoot  -32.6552 2.13508 12.4909
RightToes  -1.74624e-010 0 -3.6325e-017
Spine  31.5244 14.0119 3.45414
Spine1  35.6092 5.39735 24.7559
HEad  -29.1843 -29.4905 -17.1904
LeftShoulder1  8.2464 -18.1774 -31.9705
LeftArm  -14.6813 -72.4429 -62.6385
LeftForeArm  2.10718 -2.36802 -11.1386
LeftHand  -0.482122 -9.38061 4.1773
RightShoulder  4.57981 26.7931 7.39703
RightArm  -45.1613 30.6525 -10.3122
RightForeArm  -11.9363 2.83723 6.05959
RightHand  2.50738 26.0972 8.58043
LeftUpLeg  -71.6094 11.1533 5.32116
LeftLeg  104.576 1.91939 -7.40818
LeftFoot  -37.0794 2.22789 8.74671
LeftToes  -6.43926e-010 8.38805e-011 -3.16407e-011
